<svg class="fela-1rtnddl" width="24" height="24" viewBox="0 0 24 24" preserveAspectRatio="xMidYMid meet" xmlns="http://www.w3.org/2000/svg" aria-labelledby="a11y--id a11y--id-desc"><title id="a11y--id"></title><desc id="a11y--id-desc"></desc><g fill-rule="nonzero" fill="#343434"><path d="M6.274 14.168a.617.617 0 0 0 .593.449h13.928c.277 0 .52-.185.594-.451l2.588-9.268a.617.617 0 0 0-1.188-.331l-2.462 8.816H7.334L4.237 2.45A.617.617 0 0 0 3.643 2H.617a.617.617 0 1 0 0 1.233h2.56l3.097 10.935zM9 21.65a2.65 2.65 0 1 1 0-5.3 2.65 2.65 0 0 1 0 5.3zm0-1.3a1.35 1.35 0 1 0 0-2.7 1.35 1.35 0 0 0 0 2.7zM18 21.65a2.65 2.65 0 1 1 0-5.3 2.65 2.65 0 0 1 0 5.3zm0-1.3a1.35 1.35 0 1 0 0-2.7 1.35 1.35 0 0 0 0 2.7z"></path></g></svg>