<svg class="fela-1rtnddl" width="24" height="24" viewBox="0 0 24 24" preserveAspectRatio="xMidYMid meet" xmlns="http://www.w3.org/2000/svg" aria-labelledby="a11y--id a11y--id-desc"><title id="a11y--id"></title><desc id="a11y--id-desc"></desc><path d="M6.471 6.657c0 3.043 2.486 5.486 5.529 5.486 3.043 0 5.529-2.486 5.529-5.529 0-3.043-2.486-5.485-5.529-5.485-3.043 0-5.529 2.485-5.529 5.528zm10.2 0c0 2.572-2.1 4.629-4.671 4.629a4.682 4.682 0 0 1-4.671-4.672c0-2.571 2.1-4.628 4.671-4.628s4.671 2.1 4.671 4.671zM3.9 22.857h-.814c0-5.143 3.9-9.257 8.914-9.257 5.014 0 8.914 4.114 8.914 9.257H3.9zM20.018 22c-.397-4.296-3.754-7.543-8.018-7.543-4.264 0-7.621 3.247-8.018 7.543h16.036z" fill="#343434" stroke="#343434" stroke-width="0.5" fill-rule="evenodd"></path></svg>